<?xml version="1.0" standalone="no"?>
<!DOCTYPE svg PUBLIC "-//W3C//DTD SVG 20010904//EN"
 "http://www.w3.org/TR/2001/REC-SVG-20010904/DTD/svg10.dtd">
<svg version="1.0" xmlns="http://www.w3.org/2000/svg"
 width="260.000000pt" height="260.000000pt" viewBox="0 0 260.000000 260.000000"
 preserveAspectRatio="xMidYMid meet">
<metadata>
Created by potrace 1.11, written by Peter Selinger 2001-2013
</metadata>
<g transform="translate(0.000000,260.000000) scale(0.100000,-0.100000)"
fill="#000000" stroke="none">
<path d="M0 1300 l0 -1300 1300 0 1300 0 0 1300 0 1300 -1300 0 -1300 0 0
-1300z m1675 376 c53 -13 62 -13 87 2 15 9 30 14 32 11 4 -4 -26 -154 -40
-201 -9 -30 -21 -20 -28 24 -24 147 -162 182 -285 72 -124 -111 -188 -361
-121 -469 56 -90 218 -83 317 15 55 54 59 27 5 -28 -74 -76 -126 -97 -237 -97
-79 0 -97 4 -142 27 -96 51 -140 140 -130 261 15 175 154 332 338 381 69 19
129 19 204 2z m-1114 -8 c0 -7 10 -110 22 -228 l22 -215 163 228 163 227 114
0 c70 0 115 -4 115 -10 0 -5 -10 -10 -23 -10 -30 0 -64 -24 -81 -58 -23 -46
-147 -502 -144 -530 2 -21 11 -29 36 -37 17 -5 32 -13 32 -17 0 -4 -77 -8
-172 -8 -168 0 -192 5 -121 25 20 6 45 22 56 37 16 21 151 467 144 475 -1 1
-88 -118 -192 -264 -105 -147 -195 -268 -201 -270 -6 -2 -18 86 -33 234 -34
359 -24 350 -97 92 -78 -274 -79 -290 -21 -304 58 -15 22 -25 -90 -25 -116 0
-130 5 -70 26 18 6 41 24 53 41 11 17 54 147 94 289 l73 257 -23 19 c-12 10
-31 18 -41 18 -10 0 -19 5 -19 10 0 16 240 13 241 -2z m1714 1 c59 -16 93 -45
106 -89 25 -84 -27 -172 -121 -206 -28 -10 -50 -21 -50 -24 0 -17 72 -255 85
-279 9 -19 26 -32 45 -36 65 -14 27 -26 -77 -23 l-106 3 -45 163 c-35 124 -49
162 -60 160 -18 -3 -84 -227 -80 -268 2 -19 11 -27 36 -35 17 -5 32 -13 32
-17 0 -4 -72 -8 -160 -8 -152 0 -202 10 -125 24 21 4 41 17 51 31 26 40 167
541 159 566 -3 10 -19 21 -35 24 -17 4 -30 11 -30 16 0 13 327 11 375 -2z"/>
<path d="M2091 1525 c-18 -65 -35 -124 -38 -131 -9 -23 60 -17 97 9 57 38 75
71 75 137 0 68 -13 88 -66 96 l-35 6 -33 -117z"/>
</g>
</svg>
